<?xml version="1.0" standalone="no"?>
<!DOCTYPE svg PUBLIC "-//W3C//DTD SVG 1.1//EN" "http://www.w3.org/Graphics/SVG/1.1/DTD/svg11.dtd" >
<svg xmlns="http://www.w3.org/2000/svg">
<metadata>Generated by IcoMoon</metadata>
<defs>
<font id="icomoon" horiz-adv-x="1024">
<font-face units-per-em="1024" ascent="960" descent="-64" />
<missing-glyph horiz-adv-x="1024" />
<glyph unicode="&#x20;" horiz-adv-x="512" d="" />
<glyph unicode="&#xe604;" glyph-name="search" d="M950.004 66.845l-197.997 198.008c58.568 68.752 94.125 157.647 94.125 254.833 0 217.122-176.645 393.768-393.779 393.768s-393.778-176.646-393.778-393.768c0-217.123 176.644-393.767 393.778-393.767 97.175 0 186.083 35.556 254.837 94.123l197.993-197.993c6.189-6.188 14.302-9.281 22.409-9.281s16.22 3.093 22.41 9.281c12.376 12.366 12.376 32.434 0.002 44.797zM452.353 189.279c-182.194 0-330.395 148.226-330.395 330.408s148.201 330.407 330.395 330.407c182.195 0 330.398-148.225 330.398-330.407s-148.203-330.408-330.398-330.408z" />
<glyph unicode="&#xe60d;" glyph-name="google-plus" d="M456.558 493.161q0-20.553 18.286-40.302t44.288-38.839 51.712-41.984 43.995-59.429 18.286-81.152q0-51.419-27.429-98.853-41.143-69.705-120.576-102.583t-170.277-32.841q-75.447 0-140.873 23.698t-98.011 78.555q-21.138 34.304-21.138 74.862 0 46.299 25.417 85.723t67.73 65.719q74.862 46.848 230.839 57.161-18.286 23.991-27.136 42.277t-8.85 41.728q0 20.553 11.995 48.567-26.295-2.304-38.839-2.304-84.553 0-142.555 55.15t-58.002 139.703q0 46.848 20.553 90.843t56.576 74.862q43.995 37.705 104.302 55.991t124.27 18.286h238.848l-78.848-50.286h-74.862q42.277-35.986 64-75.995t21.723-91.429q0-41.143-14.007-73.984t-33.719-53.138-39.717-37.157-34.011-35.145-14.007-37.705zM373.138 547.982q21.723 0 44.581 9.435t37.705 24.869q30.281 32.585 30.281 90.843 0 33.134-9.728 71.424t-27.721 73.984-48.274 59.136-66.853 23.442q-23.991 0-47.141-11.154t-37.413-29.989q-26.843-33.719-26.843-91.429 0-26.295 5.705-55.698t17.993-58.843 29.696-52.846 42.862-38.29 55.15-14.848zM374.272 49.147q33.134 0 63.707 7.424t56.576 22.272 41.728 41.728 15.726 62.281q0 14.299-3.986 28.014t-8.302 23.991-15.433 23.698-16.859 20.005-22.016 19.712-20.846 16.567-23.698 17.152-20.846 14.848q-9.143 1.134-27.429 1.134-30.281 0-60.014-3.986t-61.44-14.299-55.442-26.295-39.131-42.569-15.433-60.27q0-40.009 20.005-70.583t52.297-47.433 67.986-25.161 72.85-8.302zM837.157 549.701h121.71v-61.696h-121.71v-125.147h-60.014v125.147h-121.161v61.696h121.161v124.014h60.014v-124.014z" />
<glyph unicode="&#xe610;" glyph-name="chevron-thin-down" d="M891.802 660.019c13.926 13.722 36.301 13.722 50.125 0s13.875-35.891 0-49.613l-404.89-400.896c-13.824-13.722-36.198-13.722-50.125 0l-404.89 400.896c-13.824 13.722-13.824 35.891 0 49.613 13.875 13.722 36.301 13.722 50.125 0l379.853-365.619 379.802 365.619z" />
<glyph unicode="&#xe61b;" glyph-name="support" d="M1024 448c0-21.632-1.728-42.88-4.352-63.808-0.64-5.12-1.536-10.176-2.368-15.232-2.752-17.536-6.272-34.88-10.752-51.84-0.832-3.008-1.472-6.080-2.304-9.024-12.16-42.368-29.504-82.624-51.52-119.808-44.032-74.624-106.368-136.96-180.992-180.992-37.184-22.016-77.44-39.296-119.808-51.52-2.944-0.832-6.016-1.472-9.024-2.304-16.96-4.48-34.24-8-51.84-10.752-5.056-0.832-10.112-1.728-15.232-2.368-20.928-2.624-42.176-4.352-63.808-4.352v0 0c-21.632 0-42.88 1.728-63.808 4.352-5.184 0.64-10.176 1.536-15.296 2.368-17.536 2.752-34.88 6.272-51.84 10.752-2.944 0.832-6.016 1.472-8.96 2.304-42.432 12.16-82.624 29.504-119.808 51.52-74.624 44.032-136.96 106.368-181.056 180.992-21.952 37.184-39.296 77.44-51.456 119.808-0.832 2.944-1.536 6.016-2.304 9.024-4.48 16.96-8 34.24-10.752 51.84-0.768 5.056-1.664 10.112-2.368 15.232-2.624 20.928-4.352 42.176-4.352 63.808v0 0c0 21.632 1.728 42.88 4.352 63.808 0.64 5.184 1.536 10.176 2.368 15.296 2.752 17.536 6.272 34.88 10.816 51.84 0.768 2.944 1.472 6.016 2.304 8.96 12.16 42.368 29.504 82.624 51.456 119.808 44.096 74.624 106.432 136.96 181.056 181.056 37.12 21.888 77.376 39.232 119.744 51.392 2.944 0.832 6.016 1.536 8.96 2.304 16.96 4.544 34.304 8 51.84 10.816 5.12 0.768 10.112 1.664 15.296 2.368 20.928 2.624 42.176 4.352 63.808 4.352v0 0c21.632 0 42.88-1.728 63.808-4.352 5.12-0.64 10.176-1.536 15.232-2.368 17.536-2.752 34.88-6.272 51.84-10.816 3.008-0.768 6.080-1.472 9.024-2.304 42.368-12.16 82.624-29.504 119.808-51.456 74.624-44.096 136.96-106.432 180.992-181.056 22.016-37.184 39.296-77.376 51.52-119.808 0.832-2.944 1.472-6.016 2.304-8.96 4.48-16.96 8-34.304 10.752-51.84 0.832-5.12 1.728-10.112 2.368-15.296 2.624-20.864 4.352-42.112 4.352-63.744v0 0zM214.592 564.352l-95.168 95.232c-34.176-63.296-55.424-134.592-55.424-211.584s21.248-148.288 55.424-211.584l95.168 95.168c-14.144 36.16-22.592 75.2-22.592 116.416 0 41.152 8.448 80.192 22.592 116.352zM512 0c76.992 0 148.288 21.184 211.584 55.36l-95.168 95.232c-36.16-14.144-75.2-22.592-116.416-22.592-41.152 0-80.192 8.448-116.352 22.656l-95.232-95.232c63.296-34.24 134.592-55.424 211.584-55.424zM512 896c-76.992 0-148.288-21.248-211.584-55.424l95.232-95.168c36.16 14.144 75.2 22.592 116.352 22.592 41.216 0 80.256-8.448 116.352-22.592l95.168 95.168c-63.232 34.176-134.528 55.424-211.52 55.424zM758.528 513.472v0c-23.488 88.448-92.544 157.504-180.992 181.056v0 0c-8.512 2.24-17.088 4.096-25.92 5.504-12.928 2.304-25.984 3.968-39.616 3.968s-26.688-1.664-39.68-3.968c-8.768-1.408-17.344-3.264-25.792-5.504v0 0c-88.448-23.552-157.504-92.608-181.056-181.056v0 0c-2.24-8.448-4.096-17.024-5.504-25.792-2.304-12.992-3.968-26.048-3.968-39.68s1.664-26.688 3.968-39.616c1.344-8.832 3.264-17.344 5.504-25.856v0 0c23.488-88.448 92.608-157.504 181.056-180.992v0 0c8.448-2.24 17.024-4.096 25.792-5.504 12.992-2.368 26.048-4.032 39.68-4.032s26.688 1.664 39.616 3.968c8.832 1.344 17.344 3.264 25.856 5.504v0 0c88.448 23.488 157.504 92.544 180.992 180.992v0 0c2.24 8.512 4.096 17.088 5.504 25.856 2.368 12.992 4.032 26.048 4.032 39.68s-1.664 26.688-3.968 39.68c-1.408 8.768-3.264 17.344-5.504 25.792v0zM904.64 659.584l-95.232-95.232c14.144-36.16 22.592-75.2 22.592-116.352 0-41.216-8.448-80.256-22.656-116.352l95.232-95.168c34.24 63.232 55.424 134.528 55.424 211.52s-21.184 148.288-55.36 211.584z" />
<glyph unicode="&#xe808;" glyph-name="apple" horiz-adv-x="804" d="M795.648 265.728q-21.504-71.68-69.632-142.336-73.728-112.64-147.456-112.64-27.648 0-79.872 18.432-49.152 18.432-86.016 18.432-34.816 0-80.896-19.456-47.104-19.456-75.776-19.456-87.040 0-172.032 148.48-83.968 149.504-83.968 287.744 0 130.048 64.512 212.992t162.816 82.944q40.96 0 100.352-17.408t78.848-17.408q25.6 0 81.92 19.456 58.368 19.456 99.328 19.456 67.584 0 121.856-36.864 29.696-20.48 59.392-57.344-46.080-37.888-65.536-67.584-36.864-53.248-36.864-117.76 0-71.68 38.912-128t90.112-71.68zM581.632 936.448q0-34.816-17.408-77.824-16.384-43.008-53.248-78.848-30.72-30.72-61.44-41.984-20.48-6.144-59.392-9.216 2.048 84.992 45.056 146.432 41.984 61.44 142.336 84.992 1.024-2.048 2.048-6.144t1.024-6.144q0-3.072 0-6.144t1.024-5.12z" />
<glyph unicode="&#xe80c;" glyph-name="facebook" horiz-adv-x="447" d="M0 448h99.328v-480.256h197.632v480.256h133.12l17.408 164.864h-149.504v82.944q0 18.432 2.048 28.672t8.192 20.48 19.456 13.312 35.84 4.096h82.944v164.864h-132.096q-114.688 0-164.864-54.272t-50.176-160.768v-99.328h-99.328v-164.864z" />
<glyph unicode="&#xe80d;" glyph-name="twitter" horiz-adv-x="1260" d="M0 51.712q30.72-3.072 61.44-3.072 180.224 0 321.536 110.592-83.968 1.024-150.528 51.2t-91.136 128q20.48-4.096 48.128-4.096 35.84 0 68.608 9.216-90.112 17.408-148.48 89.088t-59.392 163.84v3.072q54.272-30.72 117.76-31.744-53.248 34.816-83.968 92.16t-31.744 122.88q0 69.632 35.84 130.048 96.256-119.808 235.52-190.464t296.96-79.872q-7.168 33.792-7.168 59.392 0 106.496 75.776 182.272t183.296 75.776q111.616 0 188.416-81.92 89.088 18.432 163.84 63.488-28.672-93.184-112.64-143.36 74.752 9.216 147.456 40.96-49.152-76.8-128-134.144v-33.792q0-103.424-29.696-206.848t-92.16-198.656-148.48-168.96-205.824-117.76-259.072-43.008q-214.016 0-396.288 115.712z" />
<glyph unicode="&#xe80e;" glyph-name="facebook2" horiz-adv-x="447" d="M0 448h99.328v-480.256h197.632v480.256h133.12l17.408 164.864h-149.504v82.944q0 18.432 2.048 28.672t8.192 20.48 19.456 13.312 35.84 4.096h82.944v164.864h-132.096q-114.688 0-164.864-54.272t-50.176-160.768v-99.328h-99.328v-164.864z" />
<glyph unicode="&#xe815;" glyph-name="checked" d="M0 960v-1024h1024v1024h-1024zM960 0h-896v896h896v-896zM768 736l-320-320-192 192-128-128 320-320 448 448-128 128z" />
<glyph unicode="&#xe818;" glyph-name="qq" d="M910.858 287.278c-18.835 109.494-97.937 181.226-97.937 181.226 11.302 99.415-30.13 117.046-30.13 117.046-8.718 307.585-273.041 302.201-278.595 302.054-5.551 0.148-269.911 5.531-278.593-302.053 0 0-41.435-17.63-30.135-117.046 0 0-79.096-71.733-97.93-181.226 0 0-10.059-185.007 90.396-22.655 0 0 22.605-61.656 64.032-117.046 0 0-74.084-25.183-67.797-90.61 0 0-2.522-72.982 158.198-67.962 0 0 112.995 8.798 146.896 56.63h29.87c33.901-47.832 146.893-56.63 146.893-56.63 160.687-5.020 158.199 67.962 158.199 67.962 6.254 65.427-67.798 90.61-67.798 90.61 41.432 55.39 64.032 117.046 64.032 117.046 100.42-162.352 90.401 22.654 90.401 22.654z" />
<glyph unicode="&#xe819;" glyph-name="qqgroup" d="M986.979 273.372h-0.002c-10.483 60.946-54.513 100.875-54.513 100.875 6.291 55.335-16.771 65.149-16.771 65.149-4.854 171.207-151.98 168.21-155.072 168.128-1.431 0.038-33.758 0.688-68.537-15.615 0.003-0.094 0.008-0.185 0.010-0.279 0 0 37.044-15.764 26.939-104.65 0 0 70.725-64.135 87.564-162.033h0.003c0 0 6.311-116.589-44.8-68.093 13.747 19.719 10.885 72.61 10.885 72.61h-0.004c-16.84 97.899-87.563 162.034-87.563 162.034 10.104 88.886-26.939 104.65-26.939 104.65-7.795 275.013-244.127 270.199-249.092 270.068-4.963 0.132-241.327 4.945-249.089-270.065 0 0-37.047-15.763-26.943-104.65 0 0-70.72-64.135-87.56-162.035 0 0-8.994-165.414 80.823-20.257 0 0 20.21-55.125 57.251-104.648 0 0-66.239-22.517-60.617-81.015 0 0-2.256-65.255 141.444-60.765 0 0 101.029 7.866 131.339 50.632h26.707c30.311-42.766 131.336-50.632 131.336-50.632 143.67-4.49 141.445 60.765 141.445 60.765 5.591 58.498-60.619 81.015-60.619 81.015 37.046 49.523 57.253 104.648 57.253 104.648 8.147-13.172 15.479-23.775 22.080-32.188-9.619-20.54-24.945-49.612-45.417-76.979 0 0 64.22-21.841 60.821-78.387 9.474 4.364 17.845 9.987 22.968 17.214h16.627c18.869-26.622 81.763-31.521 81.763-31.521 89.441-2.793 88.056 37.83 88.056 37.83 3.482 36.416-37.737 50.435-37.737 50.435 23.062 30.83 35.642 65.15 35.642 65.15 55.897-90.37 50.319 12.609 50.319 12.609z" />
<glyph unicode="&#xe902;" glyph-name="cloudcontainer" d="M1008.13 747.682c0 27.459-9.477 52.008-25.146 71.633l-77.825 94.017c-15.669 18.504-38.651 30.219-64.916 30.219h-671.554c-26.265 0-49.247-11.715-64.395-30.817l-77.751-93.42c-16.266-19.624-25.742-44.173-25.742-71.633v-699.535c0-61.559 49.844-111.926 111.926-111.926h783.478c61.559 0 111.926 50.367 111.926 111.926zM903.789 772.557h-793.457l80.567 117.953h632.322l80.568-117.953zM371.241 447.922l-124.041-78.48 125.254-81.617-48.815-49.989-183.026 132.67 196.479 132.2 34.149-54.784zM608.982 449.376l-126.357-197.785-43.169 28.99 124.544 192.35 44.982-23.555zM692.169 497.586l182.938-127.080-178.212-136.864-48.873 54.183 118.008 81.617-115.022 78.48 41.161 49.664z" />
<glyph unicode="&#xe905;" glyph-name="ecommerce" d="M896.093 718.554c17.446 0 30.848-2.328 40.218-6.992 4.714-2.008 8.73-4.336 12.077-6.999s6.038-5.654 8.046-8.98c4.031-6.665 5.71-13.65 5.028-20.956 0-2.655-0.171-5.148-0.514-7.469s-0.684-4.486-0.997-6.487c-0.343-2.001-0.827-4.008-1.523-6.010l-12.064-32.934-19.112-54.915-21.105-58.909c-8.718-25.299-14.071-40.937-16.094-46.933-4.045-11.308-8.574-21.12-13.585-29.45-5.012-8.333-10.553-14.812-16.606-19.469-12.077-9.313-26.831-13.985-44.248-13.985h-478.651l14.092-79.865h458.552c29.494 0 44.247-12.304 44.247-36.914 0-12.005-3.020-22.316-9.058-30.96-5.354-8.645-16.746-12.976-34.208-12.976h-477.648c-4.037 0-7.883 0.328-11.556 0.984-3.668 0.668-7.021 1.495-10.069 2.493-3.047 1.009-5.895 2.505-8.559 4.514-8.039 5.326-14.747 12.304-20.109 20.962-2.684 3.987-5.198 8.317-7.534 12.959s-4.515 9.642-6.53 14.983c-3.347 12.645-5.697 22.303-7.050 28.938l-5.019 25.977-10.069 50.928-13.067 68.871-15.089 76.861-39.227 200.647h-68.38c-9.392 0-16.777 2.008-22.138 6.010-6.032 4.664-11.393 9.991-16.094 15.972-1.346 4.001-2.862 7.669-4.536 10.987-1.673 3.326-2.841 6.658-3.503 9.998-0.662 3.347-1.168 6.679-1.517 10.004-0.335 3.319-0.513 6.31-0.507 8.98 0 11.984 4.016 21.974 12.063 29.956 4.699 3.326 9.727 5.988 15.089 7.989s11.401 3.005 18.122 3.005h92.512c12.077 0 21.789-1.659 29.152-4.985 3.347-2.002 6.53-4.009 9.557-6.010 3.019-2.002 5.874-4.337 8.558-6.992 4.031-5.988 6.716-11.642 8.047-16.961l5.019-15.972c0.662-2.664 1.674-7.661 3.020-14.989v-4.977l4.024-25.977 5.019-33.959 623.524 0.007zM743.255 211.421c5.354 0 10.881-0.514 16.605-1.511 5.697-0.997 11.224-2.506 16.593-4.499 10.723-4.001 19.782-9.998 27.158-17.987 8.061-7.989 14.412-16.649 19.112-25.977 4.044-9.983 6.067-20.635 6.067-31.944 0-5.326-0.513-10.824-1.51-16.492-1.024-5.653-2.536-10.809-4.557-15.466-4.685-9.313-11.052-18.299-19.112-26.944-7.376-7.335-16.434-12.987-27.143-16.976-10.069-4.657-21.133-6.993-33.183-6.993-12.047 0-23.113 2.336-33.184 6.993-10.723 4.67-19.439 10.324-26.145 16.976-8.062 8.645-14.1 17.631-18.116 26.944-4.7 9.999-7.064 20.651-7.064 31.958 0 5.327 0.514 10.653 1.511 15.978 1.024 5.312 2.862 10.638 5.553 15.966 4.015 9.327 10.054 17.988 18.116 25.977 3.332 4.001 7.348 7.506 12.047 10.467 4.7 2.99 9.399 5.482 14.097 7.49 3.363 1.34 6.865 2.493 10.569 3.475 3.674 0.967 7.376 1.653 11.051 2.023 3.703 0.355 7.548 0.513 11.564 0.498l-0.030 0.044zM364.15 213.428c11.393 0 22.451-2.007 33.183-6.010 10.054-4.001 19.104-9.997 27.151-17.987 4.030-4.001 7.555-8.161 10.559-12.488 3.005-4.315 5.512-8.816 7.526-13.487 4.7-10.638 7.050-21.463 7.050-32.442 0-10.995-2.35-21.476-7.050-31.445-4.030-9.327-10.068-18.313-18.115-26.959-8.046-7.335-17.261-13.145-27.643-17.474s-21.284-6.494-32.692-6.494c-12.077 0-23.142 2.007-33.175 6.010-10.062 4.67-19.119 10.652-27.166 17.987-8.039 8.644-14.078 17.631-18.107 26.959-4.038 9.998-6.053 20.464-6.053 31.445 0 10.967 2.015 21.789 6.053 32.442 2.015 4.67 4.521 9.172 7.519 13.486 3.004 4.33 6.53 8.489 10.559 12.49 2.684 2.663 5.697 4.999 9.043 7.008l8.046 6.009c3.347 1.993 6.701 3.66 10.068 4.985 2.685 0.655 5.362 1.48 8.046 2.477 2.677 0.998 5.362 1.682 8.046 2.024 2.685 0.342 5.533 0.668 8.559 0.982 3.019 0.326 5.875 0.497 8.559 0.513l0.030-0.031z" />
<glyph unicode="&#xe908;" glyph-name="o2o" d="M385.817 293.165c0.573 6.752 1.042 15.7 1.403 26.836 0.357 11.138 0.826 22.527 1.403 34.167 14.958 12.229 28.694 24.098 41.208 35.608 20.28 18.701 38.258 36.255 53.937 52.657 12.513 13.093 23.009 25.105 31.497 36.040 4.888 6.473 8.124 11.87 9.708 16.189 1.15 3.020 1.727 6.111 1.727 9.28 0 4.17-0.937 7.801-2.805 10.894-1.871 3.094-4.82 5.721-8.845 7.878-4.029 2.157-8.92 3.887-14.671 5.181-5.753 1.294-12.297 1.942-19.633 1.942-10.070 0-20.678-0.864-31.823-2.589-11.148-1.726-26.358-5.037-45.63-9.925l5.609 30.852c1.294 6.183 3.163 18.048 5.61 35.598 37.825 6.328 73.28 9.493 106.363 9.493 15.101 0 29.557-1.368 43.364-4.099 13.807-2.734 26.175-7.373 37.108-13.916 10.929-6.546 19.128-14.168 24.593-22.869 5.467-8.704 8.2-18.089 8.2-28.155 0-6.618-0.791-13.161-2.373-19.633-1.583-6.186-4.53-13.451-8.844-21.789-5.469-10.357-12.227-20.571-20.28-30.637-11.941-15.102-25.748-30.71-41.423-46.816-14.959-15.245-32.937-32.362-53.936-51.348l23.731-0.215c5.612 0 16.721 0.142 33.333 0.432 16.613 0.286 28.154 0.574 34.627 0.862 6.474 0.288 14.455 0.935 23.948 1.942-0.433-6.903-1.117-15.533-2.050-25.89-0.937-10.356-1.908-23.013-2.913-37.97-35.814 0.287-73.283 0.432-112.403 0.432-47.179 0-87.091-0.144-119.739-0.432zM809.349 511.038c26.12 0 51.266-3.513 75.43-10.531 24.161-7.022 45.307-18.246 63.43-33.674s31.672-33.185 40.654-53.266c8.976-20.082 13.47-43.187 13.47-69.308 0-27.43-4.941-52.615-14.816-75.552-9.88-22.94-24.122-42.41-42.735-58.409-4.766-4.098-9.767-7.914-15.005-11.449 6.469-41.298 14.058-92.804 14.058-92.804s-43.185 40.481-73.779 66.906c-23.304-5.958-47.456-8.939-72.461-8.939-27.593 0-54.043 3.636-79.348 10.898-25.308 7.263-47.307 19.018-66 35.265-18.697 16.244-31.96 34.325-39.797 54.246-7.836 19.918-11.755 42.038-11.755 66.368 0 35.755 8.285 67.141 24.857 94.165 16.569 27.019 41.144 48.123 73.716 63.307s69.266 22.776 110.083 22.776zM804.94 437.322c-18.778 0-35.755-4.615-50.939-13.836-15.184-9.226-26.859-22.041-35.021-38.449-8.166-16.409-12.246-34.003-12.246-52.776 0-17.308 3.712-33.147 11.144-47.512 7.427-14.368 18.735-25.592 33.919-33.673s31.263-12.123 48.245-12.123c18.123 0 34.733 4.531 49.837 13.592 15.1 9.061 26.61 21.796 34.531 38.205 7.916 16.408 11.876 33.589 11.876 51.551 0 17.469-3.674 33.59-11.021 48.369-7.347 14.774-18.123 26.243-32.327 34.409-14.201 8.161-30.204 12.244-47.998 12.244zM233.321 734.497c26.12 0 51.265-3.513 75.429-10.531 24.161-7.022 45.307-18.246 63.43-33.674s31.672-33.184 40.654-53.266c8.976-20.082 13.47-43.187 13.47-69.308 0-27.429-4.941-52.615-14.816-75.553-9.88-22.94-24.122-42.41-42.735-58.409-18.612-16.002-40.818-27.716-66.613-35.143-25.799-7.427-52.654-11.144-80.573-11.144-27.593 0-54.043 3.636-79.348 10.897-44.992-27.942-99.026-59.895-99.026-59.895s18.212 54.097 33.025 95.162c-18.697 16.244-31.959 34.324-39.796 54.245-7.836 19.918-11.755 42.038-11.755 66.368 0 35.755 8.285 67.141 24.858 94.165 16.568 27.019 41.143 48.123 73.715 63.307s69.265 22.779 110.083 22.779zM228.913 660.781c-18.777 0-35.755-4.615-50.939-13.837-15.184-9.226-26.859-22.041-35.021-38.45-8.166-16.409-12.245-34.003-12.245-52.776 0-17.308 3.712-33.146 11.143-47.511 7.427-14.369 18.736-25.592 33.919-33.674s31.263-12.122 48.246-12.122c18.123 0 34.734 4.53 49.837 13.592 15.1 9.061 26.61 21.796 34.531 38.204 7.917 16.409 11.878 33.59 11.878 51.552 0 17.468-3.674 33.59-11.021 48.368-7.347 14.774-18.123 26.243-32.327 34.409-14.203 8.163-30.207 12.246-48 12.246z" />
<glyph unicode="&#xe90c;" glyph-name="youjian2" d="M960.992 219.232c0-19.712-5.536-37.952-14.432-54.048l-283.84 317.568 280.768 245.632c10.912-17.344 17.504-37.696 17.504-59.68v-449.472zM511.488 425.12l390.688 341.824c-16.032 8.768-34.080 14.144-53.568 14.144h-674.24c-19.52 0-37.568-5.376-53.536-14.144l390.656-341.824zM620.416 445.792l-90.432-79.168c-5.28-4.608-11.872-6.912-18.496-6.912s-13.216 2.304-18.496 6.912l-90.464 79.168-287.424-321.632c17.216-10.816 37.408-17.28 59.264-17.28h674.24c21.824 0 42.048 6.464 59.264 17.28l-287.456 321.632zM79.488 728.416c-10.912-17.312-17.472-37.696-17.472-59.68v-449.472c0-19.712 5.504-37.952 14.432-54.048l283.808 317.632-280.768 245.568z" />
<glyph unicode="&#xe90f;" glyph-name="fold" d="M862.327 899.61h-686.085c-56.741 0-102.914-46.173-102.914-102.915v-686.086c0-56.735 46.173-102.914 102.914-102.914h686.086c56.735 0 102.913 46.179 102.913 102.914v686.087c0 56.741-46.175 102.914-102.914 102.914zM738.5 422.35v0.15l-504.918-0.15v62.604h61.918v-0.454l509.487 0.454v-62.604h-66.487z" />
<glyph unicode="&#xe91a;" glyph-name="sdkdownload" d="M844.879 515.242c0.311 5.243 0.789 10.45 0.789 15.765 0 145.014-117.548 262.568-262.58 262.568-104.573 0-194.601-61.274-236.833-149.742-20.481 15.884-46.134 25.436-74.061 25.436-66.891 0-121.129-54.235-121.129-121.122 0-12.568 1.916-24.694 5.471-36.089-52.143-31.014-84.816-87.751-84.816-152.831 0-97.303 79.234-176.218 177.475-177.716l84.838 5.26-56.236 64.479c-24.072 28.774-29.783 64.081-15.275 95.12 14.496 31.026 45.547 49.156 83.062 49.156h37.669v96.614c0 58.053 48.468 110.093 106.536 110.093h36.725c58.068 0 102.343-52.040 102.343-110.093v-96.614h41.863c37.514 0 68.565-19.471 83.061-50.497 14.508-31.039 8.799-64.533-15.297-93.332l-56.213-64.926c0 0 92.661-3.163 95.869-3.163 96.003 0 173.822 76.475 173.822 172.472 0.001 72.357-44.217 132.995-107.085 159.161zM670.723 320.826h-80.717c-8.726 0-22.548 0-34.829 0v171.316c0 17.451-11.197 37.439-28.662 37.439h-36.725c-17.464 0-32.855-19.986-32.855-37.439v-171.316c-11.257 0-21.909 0-30.636 0h-80.715c-17.464 0-22.576-11.315-11.372-24.71l153.556-183.583c5.614-6.691 13-10.133 20.385-10.133s14.772 3.305 20.385 9.997l153.555 183.742c11.206 13.394 6.094 24.687-11.37 24.687z" />
<glyph unicode="&#xe925;" glyph-name="userSupport" d="M512 960c-282.784 0-512-229.216-512-512s229.216-512 512-512 512 229.216 512 512-229.216 512-512 512zM320 448c0 106.048 85.952 192 192 192s192-85.952 192-192-85.952-192-192-192-192 85.952-192 192zM925.984 276.512v0l-177.408 73.504c12.512 30.176 19.456 63.264 19.456 97.984s-6.912 67.808-19.456 97.984l177.408 73.504c21.92-52.832 34.016-110.72 34.016-171.488s-12.128-118.656-34.016-171.488v0zM683.488 861.984v0 0l-73.504-177.408c-30.176 12.512-63.264 19.424-97.984 19.424s-67.808-6.912-97.984-19.424l-73.504 177.408c52.832 21.888 110.72 34.016 171.488 34.016 60.736 0 118.656-12.128 171.488-34.016zM98.016 619.488l177.408-73.504c-12.512-30.176-19.456-63.264-19.456-97.984s6.912-67.808 19.424-97.984l-177.408-73.504c-21.92 52.832-34.016 110.72-34.016 171.488s12.128 118.656 34.016 171.488zM340.512 34.016l73.504 177.408c30.176-12.512 63.264-19.456 97.984-19.456s67.808 6.912 97.984 19.456l73.504-177.408c-52.832-21.888-110.72-34.016-171.488-34.016-60.736 0-118.656 12.128-171.488 34.016z" />
<glyph unicode="&#xe927;" glyph-name="thirdLogin" d="M512.005 895.979c113.087 0 204.758-91.674 204.758-204.755 0-113.076-91.671-204.75-204.758-204.75-113.090 0-204.768 91.667-204.768 204.75 0 113.081 91.678 204.755 204.768 204.755v0zM900.323 63.382v-62.852h-776.648v62.861c0 214.447 173.862 388.303 388.327 388.303 214.458 0.001 388.321-173.855 388.321-388.311v0 0z" />
<glyph unicode="&#xe929;" glyph-name="share" d="M846.4 643.216c-47.424 0-89.936 20.16-119.504 52.064l-391.968-211.84c2.672-11.408 4.208-23.232 4.208-35.44 0-12.832-1.728-25.232-4.672-37.184l384.416-205.536c30.304 33.584 74.448 54.88 123.776 54.88 91.312 0 165.344-72.56 165.344-162.064s-74.032-162.064-165.344-162.064-165.328 72.56-165.328 162.064c0 14.032 2.016 27.6 5.44 40.576l-383.696 205.168c-29.616-33.168-73.008-54.224-121.504-54.224-89.232 0.016-161.568 70.912-161.568 158.384s72.336 158.368 161.584 158.368c48.896 0 92.608-21.36 122.24-55.008l390.256 210.912c-3.28 12.592-5.216 25.712-5.216 39.312 0 87.472 72.336 158.368 161.568 158.368 89.232 0.016 161.568-70.896 161.568-158.352s-72.336-158.384-161.6-158.384z" />
<glyph unicode="&#xe92d;" glyph-name="online" d="M512 928c-265.216 0-480-214.848-480-480s214.784-480 480-480c265.152 0 480 214.848 480 480s-214.848 480-480 480zM453.44 195.136h-197.44v197.44h197.44v-197.44zM453.44 502.080h-197.44v197.376h197.44v-197.376zM768 194.624h-247.552v78.656h247.552v-78.656zM768 314.624h-247.552v78.656h247.552v-78.656zM768 502.72h-247.552v78.72h247.552v-78.72zM768 622.72h-247.552v78.72h247.552v-78.72z" />
<glyph unicode="&#xe92e;" glyph-name="account" d="M849.052 3.055h-680.653c-37.59 0-68.065 28.449-68.065 63.545v476.456c0 35.063 30.476 63.513 68.065 63.513h680.653c37.586 0 68.062-28.45 68.063-63.513v-476.456c0-35.097-30.477-63.546-68.062-63.545zM508.725 447.738c-56.402 0-102.098-42.642-102.098-95.283 0-35.164 20.673-65.573 51.049-82.058v-90.664c0-27.386 22.865-49.619 51.050-49.619 28.18 0 51.051 22.234 51.051 49.618v90.664c30.374 16.484 51.046 46.894 51.046 82.058-0.001 52.641-45.696 95.283-102.096 95.283zM508.725 860.683c-112.767 0-204.196-85.316-204.196-190.569h-102.096c0 157.864 137.126 285.853 306.292 285.853s306.294-127.988 306.294-285.853h-102.096c-0.001 105.253-91.431 190.569-204.198 190.569z" />
<glyph unicode="&#xe92f;" glyph-name="github" horiz-adv-x="878" d="M439.143 877.714q-119.429 0-220.286-58.857t-159.714-159.714-58.857-220.286q0-143.429 83.714-258t216.286-158.571q15.429-2.857 22.857 4t7.429 17.143q0 1.714-0.286 43.714t-0.286 76.857q0 55.429 29.714 81.143-32.571 3.429-58.571 10.286t-53.714 22.286-46.286 38-30.286 60-11.714 86q0 68 45.143 117.714-21.143 52 4.571 116.571 16 5.143 46.286-6.286t52.571-25.143l21.714-13.714q53.143 14.857 109.714 14.857t109.714-14.857q9.143 6.286 24.286 15.429t47.714 22 48.571 7.714q25.714-64.571 4.571-116.571 45.143-49.714 45.143-117.714 0-48.571-11.714-85.714t-30-60-46-38.286-53.714-22.286-58.571-10.286q22.286-20.571 28-58.857 12-5.714 25.714-8.571t32.571-2.857 37.429 12.286 31.714 35.714q10.857 18.286 27.714 29.714t28.286 13.714l11.429 1.714q12 0 16.571-2.571t2.857-6.571-5.143-8-7.429-6.857l-4-2.857q-12.571-5.714-24.857-21.714t-18-29.143l-5.714-13.143q-7.429-21.714-25.143-35.143t-38.286-17.143-39.714-4-31.714 2l-13.143 2.286q0-21.714-0.286-50.571t-0.286-31.143q0-10.286 7.429-17.143t22.857-4q132.571 44 216.286 158.571t83.714 258q0 119.429-58.857 220.286t-159.714 159.714-220.286 58.857zM711.714 247.428q-1.714 4 4 6.857 5.714 1.714 7.429-1.143 1.714-4-4-6.857-5.143-3.429-7.429 1.143zM694 228q-4 2.857 1.143 9.143 5.714 5.143 9.143 1.714 4-2.857-1.143-9.143-5.714-5.714-9.143-1.714zM676.857 202.286q-5.143 4 0 10.857 4.571 7.429 9.714 3.429 5.143-2.857 0-10.286t-9.714-4zM652.857 178.286q-4.571 4.571 2.286 10.857 6.857 6.857 11.429 1.714 5.143-4.571-2.286-10.857-6.857-6.857-11.429-1.714zM620.286 164q-1.714 6.286 7.429 9.143 8.571 2.286 10.857-4t-7.429-8.571q-8.571-3.429-10.857 3.429zM584.286 161.143q0 7.429 9.714 6.286 9.143 0 9.143-6.286 0-7.429-9.714-6.286-9.143 0-9.143 6.286zM551.143 166.857q1.143 6.286 10.286 5.143 9.143-1.714 8-8.571t-10.286-4.571-8 8z" />
</font>
</defs>
</svg>
